<mxfile host="app.diagrams.net" modified="2021-09-20T08:01:40.766Z" agent="5.0 (Windows NT 10.0; Win64; x64) AppleWebKit/537.36 (KHTML, like Gecko) Chrome/92.0.4515.107 Safari/537.36" etag="3t-SgmzRcYcqHZhqBi5K" version="15.2.9" type="github">
  <diagram id="BCK9ZwTZw40-VUul3DNZ" name="第 1 页">
    <mxGraphModel dx="1422" dy="762" grid="1" gridSize="10" guides="1" tooltips="1" connect="1" arrows="1" fold="1" page="0" pageScale="1" pageWidth="1169" pageHeight="827" math="0" shadow="0">
      <root>
        <mxCell id="0" />
        <mxCell id="1" parent="0" />
        <mxCell id="S5fi06HRl-xo2FW4MfJV-1" value="&lt;font style=&quot;font-size: 18px&quot;&gt;&lt;b&gt;父进程&lt;/b&gt;&lt;/font&gt;" style="ellipse;whiteSpace=wrap;html=1;fontFamily=Comic Sans MS;" vertex="1" parent="1">
          <mxGeometry x="460" y="130" width="120" height="80" as="geometry" />
        </mxCell>
        <mxCell id="S5fi06HRl-xo2FW4MfJV-2" value="&lt;p&gt;&lt;font style=&quot;font-size: 16px&quot; face=&quot;Comic Sans MS&quot;&gt;&lt;b&gt;内存页面副本&lt;/b&gt;&lt;/font&gt;&lt;/p&gt;" style="rounded=1;whiteSpace=wrap;html=1;strokeWidth=2;fillWeight=4;hachureGap=8;hachureAngle=45;fillColor=#d5e8d4;sketch=1;strokeColor=#82b366;" vertex="1" parent="1">
          <mxGeometry x="140" y="60" width="120" height="60" as="geometry" />
        </mxCell>
        <mxCell id="S5fi06HRl-xo2FW4MfJV-3" value="&lt;font style=&quot;font-size: 17px&quot;&gt;&lt;b&gt;共享内存&lt;/b&gt;&lt;/font&gt;" style="rounded=1;whiteSpace=wrap;html=1;strokeWidth=2;fillWeight=4;hachureGap=8;hachureAngle=45;fillColor=#f8cecc;sketch=1;strokeColor=#b85450;fontFamily=Comic Sans MS;" vertex="1" parent="1">
          <mxGeometry x="140" y="210" width="120" height="60" as="geometry" />
        </mxCell>
        <mxCell id="S5fi06HRl-xo2FW4MfJV-4" value="&lt;font style=&quot;font-size: 18px&quot;&gt;&lt;b&gt;子进程&lt;/b&gt;&lt;/font&gt;" style="ellipse;whiteSpace=wrap;html=1;fontFamily=Comic Sans MS;" vertex="1" parent="1">
          <mxGeometry x="460" y="320" width="120" height="80" as="geometry" />
        </mxCell>
        <mxCell id="S5fi06HRl-xo2FW4MfJV-6" value="" style="endArrow=classic;html=1;fontFamily=Comic Sans MS;entryX=1;entryY=0.5;entryDx=0;entryDy=0;" edge="1" parent="1" target="S5fi06HRl-xo2FW4MfJV-2">
          <mxGeometry width="50" height="50" relative="1" as="geometry">
            <mxPoint x="460" y="160" as="sourcePoint" />
            <mxPoint x="380" y="80" as="targetPoint" />
          </mxGeometry>
        </mxCell>
        <mxCell id="S5fi06HRl-xo2FW4MfJV-8" value="" style="endArrow=classic;html=1;fontFamily=Comic Sans MS;entryX=1;entryY=0.5;entryDx=0;entryDy=0;" edge="1" parent="1" source="S5fi06HRl-xo2FW4MfJV-1" target="S5fi06HRl-xo2FW4MfJV-3">
          <mxGeometry width="50" height="50" relative="1" as="geometry">
            <mxPoint x="460" y="251.03999999999996" as="sourcePoint" />
            <mxPoint x="273" y="190" as="targetPoint" />
          </mxGeometry>
        </mxCell>
      </root>
    </mxGraphModel>
  </diagram>
</mxfile>
